<svg width="19" height="19" viewBox="0 0 19 19" fill="none" xmlns="http://www.w3.org/2000/svg">
<g id="gift 1" clip-path="url(#clip0_7_367)">
<g id="Group">
<path id="Vector" d="M15.8337 9.5V17.4167H3.16699V9.5" stroke="#212121" stroke-width="1.58" stroke-linecap="round" stroke-linejoin="round"/>
<path id="Vector_2" d="M1.5835 5.54163H17.4168V9.49996H1.5835V5.54163Z" stroke="#212121" stroke-width="1.58" stroke-linecap="round" stroke-linejoin="round"/>
<path id="Vector_3" d="M9.5 17.4166V5.54163" stroke="#212121" stroke-width="1.58" stroke-linecap="round" stroke-linejoin="round"/>
<path id="Vector_4" d="M9.50016 5.54165H5.93766C5.41276 5.54165 4.90935 5.33313 4.53818 4.96196C4.16701 4.5908 3.9585 4.08739 3.9585 3.56248C3.9585 3.03757 4.16701 2.53416 4.53818 2.163C4.90935 1.79183 5.41276 1.58331 5.93766 1.58331C8.7085 1.58331 9.50016 5.54165 9.50016 5.54165Z" stroke="#212121" stroke-width="1.58" stroke-linecap="round" stroke-linejoin="round"/>
<path id="Vector_5" d="M9.5 5.54165H13.0625C13.5874 5.54165 14.0908 5.33313 14.462 4.96196C14.8331 4.5908 15.0417 4.08739 15.0417 3.56248C15.0417 3.03757 14.8331 2.53416 14.462 2.163C14.0908 1.79183 13.5874 1.58331 13.0625 1.58331C10.2917 1.58331 9.5 5.54165 9.5 5.54165Z" stroke="#212121" stroke-width="1.58" stroke-linecap="round" stroke-linejoin="round"/>
</g>
</g>
<defs>
<clipPath id="clip0_7_367">
<rect width="19" height="19" fill="white"/>
</clipPath>
</defs>
</svg>
